<svg width="26" height="24" viewBox="0 0 26 24" fill="none" xmlns="http://www.w3.org/2000/svg">
<path opacity="0.3" fill-rule="evenodd" clip-rule="evenodd" d="M19.241 0.338867C16.5057 0.338867 14.2841 2.72385 14.2841 5.66509C14.2841 8.60451 16.5057 10.9913 19.241 10.9913C23.9403 10.9913 21.2172 20.2404 15.2904 21.2038C15.0108 21.2481 14.7556 21.3955 14.571 21.6192C14.3864 21.843 14.2846 22.1283 14.2841 22.4236C14.2841 23.1798 14.9318 23.7779 15.6491 23.6633C26.4214 21.9582 30.2518 0.340685 19.241 0.340685V0.338867ZM4.95869 0.338867C2.21992 0.338867 0 2.72203 0 5.66509C0 8.60269 2.21992 10.9877 4.95869 10.9877C9.65621 10.9877 6.93311 20.2404 1.00636 21.2038C0.727019 21.2481 0.47204 21.3952 0.287483 21.6185C0.102925 21.8419 0.000958588 22.1268 0 22.4218C0 23.178 0.647694 23.7761 1.36329 23.6615C12.139 21.9564 15.9695 0.338867 4.95869 0.338867Z" fill="#00B207"/>
</svg>
